<svg width="18" height="17" viewBox="0 0 18 17" fill="none" xmlns="http://www.w3.org/2000/svg">
<path fill-rule="evenodd" clip-rule="evenodd" d="M11.7473 2.47389C10.4177 1.88147 8.93223 1.7347 7.51243 2.05549C6.09263 2.37627 4.81456 3.14742 3.86884 4.25391C2.92312 5.36041 2.36041 6.74297 2.26463 8.1954C2.16886 9.64783 2.54516 11.0923 3.3374 12.3134C4.12964 13.5345 5.29539 14.4668 6.66077 14.9712C8.02615 15.4757 9.51802 15.5252 10.9139 15.1125C12.3097 14.6998 13.5348 13.8469 14.4063 12.6811C15.2778 11.5153 15.7492 10.099 15.75 8.64339V7.95382C15.75 7.53961 16.0858 7.20382 16.5 7.20382C16.9142 7.20382 17.25 7.53961 17.25 7.95382V8.64382C17.249 10.4229 16.6729 12.1544 15.6077 13.5793C14.5425 15.0042 13.0452 16.0465 11.3392 16.551C9.63313 17.0554 7.80974 16.9948 6.14094 16.3783C4.47214 15.7617 3.04734 14.6223 2.07904 13.1298C1.11074 11.6374 0.650828 9.8719 0.767883 8.09671C0.884939 6.32151 1.5727 4.63172 2.72858 3.27933C3.88447 1.92695 5.44655 0.984439 7.18186 0.592369C8.91716 0.200299 10.7327 0.379676 12.3578 1.10375C12.7361 1.27233 12.9062 1.71572 12.7376 2.09407C12.569 2.47242 12.1256 2.64248 11.7473 2.47389Z" fill="white"/>
<path fill-rule="evenodd" clip-rule="evenodd" d="M17.0301 2.11322C17.3231 2.40597 17.3233 2.88085 17.0306 3.17388L9.5306 10.6814C9.38997 10.8222 9.19917 10.9013 9.00019 10.9013C8.80122 10.9014 8.61037 10.8223 8.46967 10.6816L6.21967 8.43165C5.92678 8.13876 5.92678 7.66388 6.21967 7.37099C6.51257 7.0781 6.98744 7.0781 7.28033 7.37099L8.99974 9.09039L15.9694 2.11375C16.2622 1.82072 16.737 1.82048 17.0301 2.11322Z" fill="white"/>
</svg>
