<?xml version="1.0" standalone="no"?><svg xmlns="http://www.w3.org/2000/svg" viewBox="0 0 1440 320"><path fill="#0099ff" fill-opacity="1" d="M0,288L14.1,282.7C28.2,277,56,267,85,224C112.9,181,141,107,169,80C197.6,53,226,75,254,112C282.4,149,311,203,339,218.7C367.1,235,395,213,424,213.3C451.8,213,480,235,508,234.7C536.5,235,565,213,593,218.7C621.2,224,649,256,678,277.3C705.9,299,734,309,762,282.7C790.6,256,819,192,847,181.3C875.3,171,904,213,932,240C960,267,988,277,1016,240C1044.7,203,1073,117,1101,80C1129.4,43,1158,53,1186,90.7C1214.1,128,1242,192,1271,197.3C1298.8,203,1327,149,1355,112C1383.5,75,1412,53,1426,42.7L1440,32L1440,0L1425.9,0C1411.8,0,1384,0,1355,0C1327.1,0,1299,0,1271,0C1242.4,0,1214,0,1186,0C1157.6,0,1129,0,1101,0C1072.9,0,1045,0,1016,0C988.2,0,960,0,932,0C903.5,0,875,0,847,0C818.8,0,791,0,762,0C734.1,0,706,0,678,0C649.4,0,621,0,593,0C564.7,0,536,0,508,0C480,0,452,0,424,0C395.3,0,367,0,339,0C310.6,0,282,0,254,0C225.9,0,198,0,169,0C141.2,0,113,0,85,0C56.5,0,28,0,14,0L0,0Z"></path></svg>