<?xml version="1.0" standalone="no"?>
<!DOCTYPE svg PUBLIC "-//W3C//DTD SVG 20010904//EN"
 "http://www.w3.org/TR/2001/REC-SVG-20010904/DTD/svg10.dtd">
<svg version="1.0" xmlns="http://www.w3.org/2000/svg"
 width="65.000000pt" height="66.000000pt" viewBox="0 0 65.000000 66.000000"
 preserveAspectRatio="xMidYMid meet">

<g transform="translate(0.000000,66.000000) scale(0.100000,-0.100000)"
fill="#000000" stroke="none">
<path d="M590 480 c-9 -6 -10 -10 -3 -10 6 0 15 5 18 10 8 12 4 12 -15 0z"/>
<path d="M341 466 c2 -2 15 -9 29 -15 24 -11 24 -11 6 3 -16 13 -49 24 -35 12z"/>
<path d="M504 432 c-38 -28 -72 -62 -61 -62 3 0 17 4 31 10 17 6 24 14 20 25
-3 8 -2 15 2 15 10 0 62 39 53 40 -3 0 -24 -13 -45 -28z"/>
<path d="M252 427 c-36 -42 -13 -109 26 -74 12 11 22 13 32 6 13 -8 13 -11 -2
-20 -21 -12 -24 -29 -5 -29 23 0 47 35 47 69 0 34 -23 52 -43 32 -6 -6 -20
-11 -31 -11 -18 0 -19 1 -1 20 15 17 16 20 3 20 -9 0 -20 -6 -26 -13z m18 -47
c0 -5 -4 -10 -10 -10 -5 0 -10 5 -10 10 0 6 5 10 10 10 6 0 10 -4 10 -10z m65
0 c3 -5 -1 -10 -9 -10 -9 0 -16 5 -16 10 0 6 4 10 9 10 6 0 13 -4 16 -10z"/>
<path d="M12 233 c2 -10 18 -27 37 -38 18 -11 57 -41 86 -67 55 -51 65 -56 65
-34 0 21 -158 156 -183 156 -5 0 -7 -8 -5 -17z"/>
<path d="M358 234 c-3 -5 -2 -18 2 -28 3 -11 9 -15 12 -10 3 5 2 18 -2 28 -3
11 -9 15 -12 10z"/>
</g>
</svg>
