<svg width="40" height="40" viewBox="0 0 40 40" fill="none" xmlns="http://www.w3.org/2000/svg">
<path d="M39.6574 0.3433C39.3259 0.0117329 38.8285 -0.0902216 38.3935 0.0838432L0.736691 15.1464C0.305826 15.3187 0.0173064 15.7291 0.000743631 16.1929C-0.015741 16.6566 0.243012 17.0864 0.660518 17.2889L15.5098 24.4907L22.7116 39.3399C22.908 39.7449 23.3182 40.0005 23.7657 40.0005C23.7797 40.0005 23.7936 40.0002 23.8076 39.9997C24.2713 39.9832 24.6818 39.6947 24.854 39.2638L39.9167 1.60722C40.0908 1.1719 39.9888 0.674789 39.6574 0.3433ZM4.06986 16.3375L33.9629 4.38038L16.1479 22.1952L4.06986 16.3375ZM23.663 35.9306L17.8052 23.8524L35.6203 6.03759L23.663 35.9306Z" fill="#898989"/>
</svg>
